<?xml version="1.0" encoding="iso-8859-1"?>
<!-- Generator: Adobe Illustrator 19.0.0, SVG Export Plug-In . SVG Version: 6.00 Build 0)  -->
<svg version="1.1" id="Capa_1" xmlns="http://www.w3.org/2000/svg" xmlns:xlink="http://www.w3.org/1999/xlink" x="0px" y="0px"
	 viewBox="0 0 420.022 420.022" style="enable-background:new 0 0 420.022 420.022;" xml:space="preserve">
<g>
	<g>
		<path d="M412.672,145.539c-6.144-7.168-15.36-11.776-24.576-11.776h-25.6L263.68,11.907c-6.144-7.68-16.896-9.216-25.088-3.584
			c-7.68,6.144-9.216,16.896-3.584,25.088c0,0.512,0.512,0.512,0.512,1.024l81.408,99.328H97.792l80.896-99.328
			c6.656-7.168,6.144-18.432-1.024-25.088c-7.168-6.656-18.432-6.144-25.088,1.024c-0.512,0.512-1.024,1.024-1.536,1.536
			L52.224,134.275h-20.48C14.336,134.275,0,148.611,0,166.019c0,2.048,0,4.096,0.512,6.144l40.96,206.336
			c4.096,21.504,23.04,36.864,45.056,36.864h246.784c22.016,0,40.96-15.36,45.056-36.864l40.96-206.336
			C421.376,162.947,418.816,153.219,412.672,145.539z M156.672,312.963c0,9.728-8.192,17.92-17.92,17.92
			c-9.728,0-17.92-8.192-17.92-17.92v-72.704c0-9.728,8.192-17.92,17.92-17.92c9.728,0,17.92,8.192,17.92,17.92V312.963z
			 M227.84,312.963c0,9.728-8.192,17.92-17.92,17.92S192,322.691,192,312.963v-72.704c0-9.728,8.192-17.92,17.92-17.92
			s17.92,8.192,17.92,17.92V312.963z M298.496,312.963c0,9.728-8.192,17.92-17.92,17.92s-17.92-8.192-17.92-17.92v-72.704
			c0-9.728,8.192-17.92,17.92-17.92s17.92,8.192,17.92,17.92V312.963z"/>
	</g>
</g>
<g>
</g>
<g>
</g>
<g>
</g>
<g>
</g>
<g>
</g>
<g>
</g>
<g>
</g>
<g>
</g>
<g>
</g>
<g>
</g>
<g>
</g>
<g>
</g>
<g>
</g>
<g>
</g>
<g>
</g>
</svg>
