<svg width="23" height="23" viewBox="0 0 23 23" fill="none" xmlns="http://www.w3.org/2000/svg">
<path d="M22.5975 7.88948C22.2611 7.48806 21.7564 7.23 21.2517 7.23H19.8499L14.4389 0.405898C14.1024 -0.0241932 13.5136 -0.110211 13.0651 0.205188C12.6445 0.549261 12.5604 1.15139 12.8688 1.61015C12.8688 1.63882 12.8968 1.63882 12.8968 1.6675L17.3547 7.23H5.35499L9.78477 1.6675C10.1493 1.26608 10.1212 0.635279 9.7287 0.262534C9.33619 -0.110211 8.71938 -0.0815386 8.35491 0.319879C8.32687 0.348552 8.29883 0.377225 8.2708 0.405898L2.85973 7.25868H1.73827C0.785025 7.25868 0 8.06151 0 9.03639C0 9.15108 0 9.26577 0.0280366 9.38046L2.27096 20.9356C2.49526 22.1398 3.53261 23 4.73819 23H18.2518C19.4574 23 20.4948 22.1398 20.7191 20.9356L22.962 9.38046C23.0741 8.86435 22.9339 8.31957 22.5975 7.88948ZM8.5792 17.2655C8.5792 17.8102 8.13062 18.269 7.59792 18.269C7.06522 18.269 6.61664 17.8102 6.61664 17.2655V13.1939C6.61664 12.6491 7.06522 12.1904 7.59792 12.1904C8.13062 12.1904 8.5792 12.6491 8.5792 13.1939V17.2655ZM12.4763 17.2655C12.4763 17.8102 12.0277 18.269 11.495 18.269C10.9623 18.269 10.5137 17.8102 10.5137 17.2655V13.1939C10.5137 12.6491 10.9623 12.1904 11.495 12.1904C12.0277 12.1904 12.4763 12.6491 12.4763 13.1939V17.2655ZM16.3453 17.2655C16.3453 17.8102 15.8968 18.269 15.3641 18.269C14.8314 18.269 14.3828 17.8102 14.3828 17.2655V13.1939C14.3828 12.6491 14.8314 12.1904 15.3641 12.1904C15.8968 12.1904 16.3453 12.6491 16.3453 13.1939V17.2655Z" fill="#4B4B4B"/>
</svg>
