<svg width="22" height="23" viewBox="0 0 22 23" fill="none" xmlns="http://www.w3.org/2000/svg">
<path d="M14.6919 2.51722C11.3356 -0.839074 5.87297 -0.839074 2.51668 2.51722C-0.838892 5.87425 -0.838892 11.3361 2.51668 14.6932C5.50555 17.6813 10.1606 18.0014 13.5147 15.6681C13.5853 16.0021 13.7468 16.3207 14.0065 16.5805L18.8944 21.4683C19.6066 22.1792 20.7577 22.1792 21.4663 21.4683C22.1779 20.7568 22.1779 19.6057 21.4663 18.8964L16.5785 14.0071C16.3202 13.7495 16.0008 13.5873 15.6668 13.5167C18.0016 10.1618 17.6815 5.50755 14.6919 2.51722ZM13.1487 13.15C10.6429 15.6557 6.56489 15.6557 4.05986 13.15C1.55555 10.6442 1.55555 6.5669 4.05986 4.06113C6.56489 1.5561 10.6429 1.5561 13.1487 4.06113C15.6545 6.5669 15.6545 10.6442 13.1487 13.15Z" fill="#4B4B4B"/>
</svg>
