<svg width="21" height="23" viewBox="0 0 21 23" fill="none" xmlns="http://www.w3.org/2000/svg">
<path d="M10.5016 0C7.15011 0 4.4104 2.68593 4.4104 5.97166C4.4104 9.2574 7.15011 11.9433 10.5016 11.9433C13.8531 11.9433 16.5929 9.2574 16.5929 5.97166C16.5929 2.68593 13.8531 0 10.5016 0Z" fill="#4B4B4B"/>
<path d="M20.9551 16.7154C20.7955 16.3243 20.5827 15.9592 20.3434 15.6202C19.1198 13.8469 17.2313 12.6735 15.1033 12.3866C14.8374 12.3606 14.5448 12.4127 14.332 12.5691C13.2148 13.3775 11.8848 13.7948 10.5016 13.7948C9.11845 13.7948 7.78852 13.3775 6.67134 12.5691C6.45853 12.4127 6.16593 12.3344 5.89997 12.3866C3.77202 12.6735 1.8569 13.8469 0.659943 15.6202C0.420552 15.9592 0.207737 16.3504 0.0481773 16.7154C-0.0316027 16.8719 -0.00502637 17.0544 0.0747536 17.2109C0.287568 17.576 0.553535 17.9411 0.792926 18.254C1.1653 18.7495 1.5643 19.1928 2.01651 19.61C2.38888 19.9751 2.81446 20.3141 3.24009 20.6531C5.3414 22.1917 7.86835 23 10.4751 23C13.0818 23 15.6087 22.1916 17.7101 20.6531C18.1356 20.3402 18.5612 19.9751 18.9336 19.61C19.3592 19.1928 19.7848 18.7494 20.1572 18.254C20.4232 17.915 20.6626 17.576 20.8754 17.2109C21.0083 17.0544 21.0349 16.8719 20.9551 16.7154Z" fill="#4B4B4B"/>
</svg>
