<svg width="131" height="164" viewBox="0 0 131 164" fill="none" xmlns="http://www.w3.org/2000/svg">
<path d="M100.413 97.9619L108.497 107.686C111.105 110.824 112.265 114.941 111.68 118.983C111.222 122.145 109.728 125.048 107.476 127.246C109.884 132.816 108.572 139.353 103.94 143.584L81.5884 164H126.207C128.854 164 131 161.849 131 159.195V139.336C131 119.866 118.097 103.362 100.413 97.9619Z" fill="white" fill-opacity="0.9"/>
<path d="M23.5241 127.246C21.2718 125.047 19.7772 122.145 19.3196 118.983C18.7349 114.942 19.8954 110.824 22.5029 107.687L30.5869 97.9619C12.9035 103.362 0 119.866 0 139.336V159.195C0 161.849 2.14584 164 4.79268 164H49.4116L27.0604 143.585C22.4275 139.352 21.1156 132.815 23.5241 127.246Z" fill="white" fill-opacity="0.9"/>
<path d="M98.2439 130.265L94.512 124.653L100.11 120.912C102.48 119.327 102.957 116.032 101.133 113.838L89.728 100.118L70.1074 161.487L97.4838 136.481C99.235 134.882 99.5577 132.24 98.2439 130.265Z" fill="white" fill-opacity="0.9"/>
<path d="M29.867 113.838C28.0433 116.032 28.52 119.327 30.8904 120.912L36.4883 124.653L32.7564 130.265C31.4426 132.24 31.7653 134.882 33.5162 136.482L60.8926 161.487L41.2724 100.118L29.867 113.838Z" fill="white" fill-opacity="0.9"/>
<path d="M55.721 20.6262C57.4077 18.935 60.0776 18.7453 61.9854 20.1797L66.039 23.2275C70.8426 26.839 76.7951 28.8281 82.7994 28.8281H99.0488V24.0234C99.0488 10.7769 88.2988 0 75.0854 0H55.9146C42.7012 0 31.9512 10.7769 31.9512 24.0234V28.8281H35.9685C43.43 28.8281 50.4449 25.9152 55.721 20.6262Z" fill="white" fill-opacity="0.9"/>
<path d="M65.5 86.4845C83.9988 86.4845 99.0488 71.3968 99.0488 52.8517V38.4376H82.7994C74.7346 38.4376 66.7397 35.7659 60.2878 30.9151L59.374 30.228C52.7496 35.5484 44.5806 38.4376 35.9688 38.4376H31.9512V52.8517C31.9512 71.3968 47.0012 86.4845 65.5 86.4845ZM54.1235 62.1501C55.9948 60.274 59.0296 60.274 60.9013 62.1501C62.1317 63.3833 63.7647 64.0626 65.5003 64.0626C67.2359 64.0626 68.8689 63.3833 70.0994 62.1501C71.9708 60.274 75.0055 60.274 76.8772 62.1501C78.7489 64.0261 78.7489 67.0685 76.8772 68.9448C73.8361 71.9933 69.7959 73.672 65.5 73.672C61.2042 73.672 57.1639 71.9933 54.1235 68.9448C52.2514 67.0688 52.2514 64.0264 54.1235 62.1501Z" fill="white" fill-opacity="0.9"/>
<path d="M118.22 43.2423C118.22 37.5945 114.053 32.9244 108.634 32.147V54.3373C114.053 53.5602 118.22 48.89 118.22 43.2423Z" fill="white" fill-opacity="0.9"/>
<path d="M22.3659 54.3375V32.1472C16.9469 32.9246 12.7805 37.5948 12.7805 43.2425C12.7805 48.89 16.9469 53.5601 22.3659 54.3375Z" fill="white" fill-opacity="0.9"/>
<path d="M65.5 96.0939C59.658 96.0939 54.0848 94.9212 48.9988 92.802L65.5 144.415L82.0012 92.802C76.9152 94.9212 71.342 96.0939 65.5 96.0939Z" fill="white" fill-opacity="0.9"/>
</svg>
