<svg width="155" height="155" viewBox="0 0 155 155" fill="none" xmlns="http://www.w3.org/2000/svg">
<path d="M42.549 36.3281H112.451C114.969 36.3281 117.01 34.295 117.01 31.7871V4.54101C117.01 2.03316 114.969 0 112.451 0H42.549C40.0313 0 37.9902 2.03316 37.9902 4.54101V31.7871C37.9902 34.295 40.0313 36.3281 42.549 36.3281ZM51.6666 13.623H103.333C105.851 13.623 107.892 15.6562 107.892 18.1641C107.892 20.6719 105.851 22.7051 103.333 22.7051H51.6666C49.149 22.7051 47.1078 20.6719 47.1078 18.1641C47.1078 15.6562 49.149 13.623 51.6666 13.623Z" fill="white" fill-opacity="0.9"/>
<path d="M94.2157 109.59H121.569V127.754H94.2157V109.59Z" fill="white" fill-opacity="0.9"/>
<path d="M126.735 82.9124C122.89 87.7258 116.965 90.8204 110.324 90.8204C103.683 90.8204 97.757 87.7258 93.9118 82.9124C90.0666 87.7258 84.141 90.8204 77.5 90.8204C70.859 90.8204 64.9335 87.7258 61.0883 82.9124C57.243 87.7258 51.3175 90.8204 44.6765 90.8204C38.0355 90.8204 32.1099 87.7258 28.2647 82.9124C24.4195 87.7258 18.494 90.8204 11.853 90.8204C10.9254 90.8204 10.0136 90.7538 9.11768 90.6369V150.459C9.11768 152.967 11.1588 155 13.6765 155H24.3138V105.049C24.3138 102.541 26.3549 100.508 28.8726 100.508H65.3432C67.8608 100.508 69.902 102.541 69.902 105.049V155H141.324C143.841 155 145.882 152.967 145.882 150.459V90.6369C144.986 90.7538 144.075 90.8204 143.147 90.8204C136.506 90.8204 130.581 87.7258 126.735 82.9124ZM130.686 132.295C130.686 134.803 128.645 136.836 126.127 136.836H89.6569C87.1392 136.836 85.0981 134.803 85.0981 132.295V105.049C85.0981 102.541 87.1392 100.508 89.6569 100.508H126.127C128.645 100.508 130.686 102.541 130.686 105.049V132.295Z" fill="white" fill-opacity="0.9"/>
<path d="M33.4314 155H60.7843V109.59H33.4314V155ZM45.5883 126.24C45.5883 123.732 47.6294 121.699 50.1471 121.699C52.6648 121.699 54.7059 123.732 54.7059 126.24V132.295C54.7059 134.803 52.6648 136.836 50.1471 136.836C47.6294 136.836 45.5883 134.803 45.5883 132.295V126.24Z" fill="white" fill-opacity="0.9"/>
<path d="M44.6765 81.7383C51.2227 81.7383 56.5294 76.4522 56.5294 69.9316V63.5742H32.8235V69.9316C32.8235 76.4522 38.1303 81.7383 44.6765 81.7383Z" fill="white" fill-opacity="0.9"/>
<path d="M77.5 81.7383C84.0462 81.7383 89.353 76.4522 89.353 69.9316V63.5742H65.6471V69.9316C65.6471 76.4522 70.9539 81.7383 77.5 81.7383Z" fill="white" fill-opacity="0.9"/>
<path d="M110.324 81.7383C116.87 81.7383 122.176 76.4522 122.176 69.9316V63.5742H98.4706V69.9316C98.4706 76.4522 103.777 81.7383 110.324 81.7383Z" fill="white" fill-opacity="0.9"/>
<path d="M11.8529 81.7383C18.3991 81.7383 23.7059 76.4522 23.7059 69.9316V63.5742H0V69.9316C0 76.4522 5.30677 81.7383 11.8529 81.7383Z" fill="white" fill-opacity="0.9"/>
<path d="M131.294 63.5742V69.9316C131.294 76.4522 136.601 81.7383 143.147 81.7383C149.693 81.7383 155 76.4522 155 69.9316V63.5742H131.294Z" fill="white" fill-opacity="0.9"/>
<path d="M142.517 27.0732C141.825 25.3492 140.149 24.2188 138.284 24.2188H126.127V31.7871C126.127 39.2989 119.992 45.4102 112.451 45.4102H42.5491C35.0079 45.4102 28.8726 39.2989 28.8726 31.7871V24.2188H16.7157C14.8515 24.2188 13.1753 25.3492 12.483 27.0732L1.47253 54.4922H153.528L142.517 27.0732Z" fill="white" fill-opacity="0.9"/>
</svg>
